<?xml version="1.0" standalone="no"?>
<!DOCTYPE svg PUBLIC "-//W3C//DTD SVG 20010904//EN"
 "http://www.w3.org/TR/2001/REC-SVG-20010904/DTD/svg10.dtd">
<svg version="1.0" xmlns="http://www.w3.org/2000/svg"
 width="500.000000pt" height="500.000000pt" viewBox="0 0 500.000000 500.000000"
 preserveAspectRatio="xMidYMid meet">

<g transform="translate(0.000000,500.000000) scale(0.100000,-0.100000)"
fill="#000000" stroke="none">
<path d="M3690 3490 l-65 -7 60 -2 c77 -4 39 -19 -51 -20 -44 -1 -95 -13 -179
-41 -133 -46 -185 -71 -269 -129 -33 -22 -64 -37 -70 -34 -6 4 -37 24 -70 46
-74 50 -199 108 -296 139 -68 21 -91 23 -260 21 -179 -1 -188 -2 -285 -33 -55
-18 -125 -43 -155 -57 -201 -89 -375 -254 -461 -437 -47 -100 -28 -91 25 12
26 49 62 107 82 128 32 36 31 34 -11 -30 -47 -72 -57 -98 -29 -75 11 9 7 -6
-11 -40 -16 -29 -34 -55 -41 -58 -33 -13 -78 -171 -91 -323 -7 -88 -8 -92 -14
-45 -5 42 -6 37 -7 -35 -1 -79 23 -245 28 -190 1 17 6 6 15 -30 16 -64 18 -84
4 -55 -8 16 -8 15 -4 -8 7 -37 46 -139 51 -135 2 2 -5 28 -16 56 -24 62 -25
72 -6 72 7 0 19 -20 26 -45 7 -25 26 -66 41 -91 16 -24 29 -50 29 -58 0 -7 16
-30 35 -52 20 -21 51 -61 69 -89 38 -56 79 -98 100 -101 8 -1 40 -20 73 -42
80 -54 167 -97 276 -135 90 -31 95 -32 272 -32 197 0 256 11 407 75 67 29 96
46 199 119 l46 33 61 -45 c93 -68 233 -136 340 -164 124 -33 321 -37 447 -9
196 43 320 112 466 256 216 214 290 414 293 795 1 149 -2 190 -17 240 -23 74
-82 186 -138 260 -38 51 -60 72 -43 43 4 -7 -22 15 -57 49 -73 70 -208 160
-306 205 -91 41 -228 74 -342 83 -59 5 -88 11 -80 16 8 5 10 8 4 7 -5 -1 -39
-4 -75 -8z m-2173 -1082 c-3 -7 -5 -2 -5 12 0 14 2 19 5 13 2 -7 2 -19 0 -25z"/>
<path d="M2388 3483 c12 -2 30 -2 40 0 9 3 -1 5 -23 4 -22 0 -30 -2 -17 -4z"/>
<path d="M1620 2004 c14 -37 62 -116 67 -111 4 5 -66 137 -73 137 -2 0 1 -12
6 -26z"/>
</g>
</svg>
